<svg xmlns="http://www.w3.org/2000/svg" viewBox="0 0 49 62"><path fill="BODY" stroke="BODY" stroke-miterlimit="10" stroke-width="4" d="m46.45 14.19-1.36-1.36-9.51-9.51-.77-.77A1.88 1.88 0 0 0 33.49 2h-29A2.46 2.46 0 0 0 2 4.46v53.08A2.46 2.46 0 0 0 4.46 60h40.08A2.46 2.46 0 0 0 47 57.54v-42a1.88 1.88 0 0 0-.55-1.35Z" /><path id="border" fill="ACCENT1" d="m46.45 14.19-1.36-1.36-9.51-9.51-.77-.77A1.88 1.88 0 0 0 33.49 2h-29A2.46 2.46 0 0 0 2 4.46v53.08A2.46 2.46 0 0 0 4.46 60h40.08A2.46 2.46 0 0 0 47 57.54v-42a1.88 1.88 0 0 0-.55-1.35Zm-3-.19H35V5.57ZM45 57.54a.47.47 0 0 1-.46.46H4.46a.47.47 0 0 1-.46-.46V43h41ZM4 41V4.46A.47.47 0 0 1 4.46 4h28.6a1.32 1.32 0 0 0-.06.39V16h11.61a1.32 1.32 0 0 0 .39-.06V41Z" /><path id="icon" fill="ACCENT2" d="M36 21h-6v-4H20v4h-6v-2H8v6h6v-2h3.55A15.1 15.1 0 0 0 10 36a1 1 0 0 0 2 0 13.07 13.07 0 0 1 8-12v3h10v-3a13.08 13.08 0 0 1 8 12 1 1 0 0 0 2 0 15.1 15.1 0 0 0-7.55-13H36v2h6v-6h-6Zm-24 2h-2v-2h2Zm16 2h-6v-6h6Zm10-4h2v2h-2Z" /><path id="name" fill="ACCENT3" d="M20.45 50.69a7.36 7.36 0 0 1-.27 2.13 5 5 0 0 1-.68 1.48 3.4 3.4 0 0 1-.92.93 4.74 4.74 0 0 1-1 .52 4 4 0 0 1-.87.21 4.15 4.15 0 0 1-.6 0h-3.8V45.93h3a5.74 5.74 0 0 1 2.24.41 4.57 4.57 0 0 1 1.59 1.08 4.24 4.24 0 0 1 .95 1.52 4.8 4.8 0 0 1 .36 1.75Zm-4.87 4.12A2.74 2.74 0 0 0 18 53.74a5.42 5.42 0 0 0 .74-3.09 4.82 4.82 0 0 0-.16-1.25 2.58 2.58 0 0 0-.58-1.11 2.93 2.93 0 0 0-1.17-.8 4.92 4.92 0 0 0-1.91-.31H14v7.63Zm11.83-3.7L30 56h-1.9l-1.6-3.79h-.14L24.61 56H22.7l2.57-4.9-2.73-5.18h1.87L26.19 50h.14l1.92-4.1h1.87Zm6.69-3.93v3.18h4.21v1.12H34.1V56h-1.67V45.93h6.3v1.25Z" /></svg>