<svg xmlns="http://www.w3.org/2000/svg" viewBox="0 0 49 62"><path id="Background" fill="BODY" stroke="BODY" stroke-miterlimit="10" stroke-width="4" d="m46.45 14.19-.77-.77-10.1-10.1-.77-.77A1.88 1.88 0 0 0 33.49 2h-29C3.28 2 2 2.92 2 4.93V58a2.29 2.29 0 0 0 1.84 1.91L4 60a2.42 2.42 0 0 0 .47 0h40.07a2.42 2.42 0 0 0 .46 0h.15A2.29 2.29 0 0 0 47 58V16a2.28 2.28 0 0 0-.55-1.81Z" /><path id="border" fill="ACCENT1" d="m46.45 14.19-.77-.77-10.1-10.1-.77-.77A1.88 1.88 0 0 0 33.48 2h-29C3.28 2 2 2.92 2 4.93V58a2.29 2.29 0 0 0 1.84 1.91L4 60a2.42 2.42 0 0 0 .47 0h40.07a2.42 2.42 0 0 0 .46 0h.15A2.29 2.29 0 0 0 47 58V16a2.28 2.28 0 0 0-.55-1.81Zm-3-.19H35V5.57Zm-39 44a.73.73 0 0 1-.2 0 .45.45 0 0 1-.25-.46V43h41v14.54a.44.44 0 0 1-.27.41.59.59 0 0 1-.19 0ZM4 41V4.93C4 4.71 4 4 4.46 4h28.6a1.32 1.32 0 0 0-.06.39V16h11.61a1.32 1.32 0 0 0 .39-.06V41Z" /><path id="icon" fill="ACCENT2" d="M33.93 25a19.19 19.19 0 0 0-3.36.36 32 32 0 0 1-5.09-7.56c1.34-5.63.67-6.43.37-6.8s-.75-1.05-1.26-1.05a4.64 4.64 0 0 0-1 .17 1.91 1.91 0 0 0-1.14 1.21c-.7 1.66.27 4.47 1.26 6.65a67.43 67.43 0 0 1-3.78 10.75c-3.79 1.73-5.81 3.44-6 5.06A2.42 2.42 0 0 0 15.05 36a1.61 1.61 0 0 0 1 .32c.88 0 1.76-.67 2.79-2.1A29.26 29.26 0 0 0 21.18 30 48.52 48.52 0 0 1 30 27.14c1.58 1.52 3 2.29 4.21 2.29a2.66 2.66 0 0 0 2.22-1.19 2 2 0 0 0 .39-2.16c-.38-.75-1.33-1.08-2.89-1.08ZM16 34.63c-.47-.35-.44-.6-.43-.69.06-.55.93-1.54 3.07-2.74-1.58 2.99-2.45 3.39-2.64 3.43Zm8.2-22.92s1 1.1.09 3.22a2.41 2.41 0 0 1-.05-3.22Zm-2.07 16a72.29 72.29 0 0 0 2.67-7.57 34.77 34.77 0 0 0 3.83 5.55 49.37 49.37 0 0 0-6.46 2.05Zm12.9-.48a1.51 1.51 0 0 1-1.21.44c-.53 0-.73-.32-1.55-.94a13.74 13.74 0 0 1 1.81-.11c.89 0 1.06.13 1.18.2a1.51 1.51 0 0 1-.19.44Z" /><path id="name" fill="ACCENT3" d="M13.87 56h-1.63V45.88h2.89a4 4 0 0 1 1.28.21 3.32 3.32 0 0 1 1.12.62 3.08 3.08 0 0 1 .81 1 2.84 2.84 0 0 1 .31 1.29 3.62 3.62 0 0 1-.26 1.39 2.88 2.88 0 0 1-.73 1 3.46 3.46 0 0 1-1.12.66 4.41 4.41 0 0 1-1.45.23h-1.22Zm0-8.84v4h1.5A2.09 2.09 0 0 0 16 51a1.41 1.41 0 0 0 .54-.34 1.6 1.6 0 0 0 .4-.65 3.05 3.05 0 0 0 .16-1 3.15 3.15 0 0 0-.07-.57 1.73 1.73 0 0 0-.28-.62 1.65 1.65 0 0 0-.6-.49 2.24 2.24 0 0 0-1-.2Zm14.84 3.52a7.75 7.75 0 0 1-.26 2.13 5.29 5.29 0 0 1-.68 1.47 3.47 3.47 0 0 1-.93.94 4.4 4.4 0 0 1-1 .51 4.19 4.19 0 0 1-.88.22c-.26 0-.46.05-.59.05h-3.79V45.88h3a5.51 5.51 0 0 1 2.23.41 4.83 4.83 0 0 1 1.6 1.07 4.52 4.52 0 0 1 .95 1.53 5 5 0 0 1 .35 1.75Zm-4.87 4.11a2.73 2.73 0 0 0 2.41-1.06A5.42 5.42 0 0 0 27 50.6a5.28 5.28 0 0 0-.15-1.25 2.82 2.82 0 0 0-.58-1.11 3.21 3.21 0 0 0-1.17-.81 5.21 5.21 0 0 0-1.92-.31h-1v7.63Zm8.92-7.63v3.14H37v1.12h-4.24V56h-1.67V45.88h6.3v1.24Z" /></svg>