<svg xmlns="http://www.w3.org/2000/svg" viewBox="0 0 49 62"><path id="Background" fill="BODY" stroke="BODY" stroke-miterlimit="10" stroke-width="4" d="m46.5 14.2-.8-.8L35.6 3.3l-.8-.8a1.9 1.9 0 0 0-1.3-.5h-29A2.59 2.59 0 0 0 2 4.9V58a2.21 2.21 0 0 0 1.8 1.9h41.4A2.32 2.32 0 0 0 47 58V16a2.43 2.43 0 0 0-.5-1.8Z"/><path id="Name" fill="ACCENT3" d="M13.88 55.87h-1.63V45.79h2.89a4 4 0 0 1 1.28.21 3.48 3.48 0 0 1 1.12.61 3.12 3.12 0 0 1 .81 1 2.7 2.7 0 0 1 .31 1.31 3.57 3.57 0 0 1-.26 1.38 2.92 2.92 0 0 1-.73 1.05 3.46 3.46 0 0 1-1.12.66 4.41 4.41 0 0 1-1.45.23h-1.22Zm0-8.84v4h1.5a1.8 1.8 0 0 0 .6-.1 1.28 1.28 0 0 0 .54-.33 1.67 1.67 0 0 0 .4-.65 3.05 3.05 0 0 0 .16-1 3.36 3.36 0 0 0-.07-.58 1.76 1.76 0 0 0-.28-.61 1.56 1.56 0 0 0-.6-.49 2.24 2.24 0 0 0-1-.2Zm13.93-1.24v10.08h-1.66l-3.95-6.95v6.95h-1.67V45.79h1.67l3.95 6.94v-6.94Zm9.86 4.88v3.9a3.3 3.3 0 0 1-.7.65 4.54 4.54 0 0 1-.82.42 5 5 0 0 1-.89.23 7.11 7.11 0 0 1-.91.07 4.13 4.13 0 0 1-1.66-.33 3.74 3.74 0 0 1-1.33-1 4.56 4.56 0 0 1-.89-1.6 8 8 0 0 1 0-4.49 4.56 4.56 0 0 1 .89-1.6 3.74 3.74 0 0 1 1.33-1 4.13 4.13 0 0 1 1.66-.33 4 4 0 0 1 1.53.28 3.51 3.51 0 0 1 1.27.82l-1.13 1a2 2 0 0 0-.75-.57 2.27 2.27 0 0 0-.88-.18 2.45 2.45 0 0 0-1 .19 2.1 2.1 0 0 0-.82.65A3.47 3.47 0 0 0 32 49a6.8 6.8 0 0 0-.22 1.78 7.53 7.53 0 0 0 .22 1.78 3.9 3.9 0 0 0 .55 1.23 2.2 2.2 0 0 0 .79.71 2 2 0 0 0 .94.23 3.11 3.11 0 0 0 .4 0 4.46 4.46 0 0 0 .51-.07 2.42 2.42 0 0 0 .48-.13.74.74 0 0 0 .34-.22v-2.5h-1.7v-1.14Z"/><path id="Icon" fill="ACCENT2" d="M33 4.39V16h2a1 1 0 0 0 2 0h2a1 1 0 0 0 2 0h2a1 1 0 0 0 2 0v12.6l-.2-.2c.1-.2.2-.3.2-.5a.94.94 0 0 0-1-1 1.23 1.23 0 0 0-.56.18l-.63-.61a1.28 1.28 0 0 0 .19-.57.94.94 0 0 0-1-1 1.38 1.38 0 0 0-.59.2l-.61-.6a1.42 1.42 0 0 0 .2-.6.94.94 0 0 0-1-1 .64.64 0 0 0-.58.26l-.67-.66a.87.87 0 0 0 .25-.6.94.94 0 0 0-1-1 .73.73 0 0 0-.62.28l-.64-.62a1 1 0 0 0 .4-.7 1 1 0 0 0-2 0 .73.73 0 0 0 .36.71l-.4.44-.34.37A.71.71 0 0 0 34 21a.94.94 0 0 0-1 1 1.28 1.28 0 0 0 .45.79l-.66.7A.77.77 0 0 0 32 23a.94.94 0 0 0-1 1 .84.84 0 0 0 .56.83l-.64.69A.92.92 0 0 0 30 25a.94.94 0 0 0-1 1 .88.88 0 0 0 .68.85l-.73.79A1 1 0 0 0 28 27a.94.94 0 0 0-1 1 1 1 0 0 0 .73 1l-.73.8a.93.93 0 0 0-1-.8.94.94 0 0 0-1 1 1 1 0 0 0 .86 1s0 0-.14.15a.47.47 0 0 1-.67 0L20.8 26.9a1.07 1.07 0 0 0-1.4-.1L13 32.2V32a1 1 0 0 0-2 0 1 1 0 0 0 1 1l-1 .87a1 1 0 0 0-1-.87 1 1 0 0 0-.21 1.9l-.89.75A1.06 1.06 0 0 0 8 35a.94.94 0 0 0-1 1 1 1 0 0 0 .46.87l-.7.59A.91.91 0 0 0 6 37a.94.94 0 0 0-1 1 .91.91 0 0 0 .3.7l-.64.51a.46.46 0 0 1-.66-.42V37a1 1 0 0 0 0-2v-2a.93.93 0 0 0 1-1 .94.94 0 0 0-1-1v-2a1 1 0 0 0 0-2v-2a1 1 0 0 0 0-2v-2a1 1 0 0 0 0-2v-2a1 1 0 0 0 0-2v-2a1 1 0 0 0 0-2V9a.94.94 0 0 0 1-1 .94.94 0 0 0-1-1V5a.94.94 0 0 0 1-1h2a.94.94 0 0 0 1 1 .94.94 0 0 0 1-1h2a1 1 0 0 0 2 0h2a1 1 0 0 0 2 0h2a1 1 0 0 0 2 0h2a1 1 0 0 0 2 0h2a1 1 0 0 0 2 0h2a1.05 1.05 0 0 0 2 .4M4 42.54l15.9-13.63L30.2 39.2a.92.92 0 0 0 1.4 0 1 1 0 0 0-.12-1.53l-4.28-4.36a.46.46 0 0 1 0-.63l8.6-9.34a.45.45 0 0 1 .65 0L45 31.5V16H33V4.43a.43.43 0 0 0-.43-.43H4m2 1a.94.94 0 0 1 1 1 .94.94 0 0 1-1 1 .94.94 0 0 1-1-1 .94.94 0 0 1 1-1Zm4 0a.94.94 0 0 1 1 1 .94.94 0 0 1-1 1 .94.94 0 0 1-1-1 .94.94 0 0 1 1-1Zm4 0a.94.94 0 0 1 1 1 1 1 0 0 1-2 0 .94.94 0 0 1 1-1Zm4 0a.94.94 0 0 1 1 1 1 1 0 0 1-2 0 .94.94 0 0 1 1-1Zm4 0a.94.94 0 0 1 1 1 1 1 0 0 1-2 0 .94.94 0 0 1 1-1Zm4 0a.94.94 0 0 1 1 1 1 1 0 0 1-2 0 .94.94 0 0 1 1-1Zm4 0a.94.94 0 0 1 1 1 1 1 0 0 1-2 0 .94.94 0 0 1 1-1Zm2 2a.94.94 0 0 1 1 1 1 1 0 0 1-2 0 .94.94 0 0 1 1-1Zm-4 0a.94.94 0 0 1 1 1 1 1 0 0 1-2 0 .94.94 0 0 1 1-1Zm-4 0a.94.94 0 0 1 1 1 1 1 0 0 1-2 0 .94.94 0 0 1 1-1Zm-4 0a.94.94 0 0 1 1 1 1 1 0 0 1-2 0 .94.94 0 0 1 1-1Zm-4 0a.94.94 0 0 1 1 1 1 1 0 0 1-2 0 .94.94 0 0 1 1-1Zm-4 0a.94.94 0 0 1 1 1 1 1 0 0 1-2 0 .94.94 0 0 1 1-1ZM8 7a.94.94 0 0 1 1 1 .94.94 0 0 1-1 1 .94.94 0 0 1-1-1 .94.94 0 0 1 1-1ZM6 9a.94.94 0 0 1 1 1 .94.94 0 0 1-1 1 .94.94 0 0 1-1-1 .94.94 0 0 1 1-1Zm4 0a.94.94 0 0 1 1 1 .94.94 0 0 1-1 1 .94.94 0 0 1-1-1 .94.94 0 0 1 1-1Zm4 0a.94.94 0 0 1 1 1 1 1 0 0 1-2 0 .94.94 0 0 1 1-1Zm4 0a.94.94 0 0 1 1 1 1 1 0 0 1-2 0 .94.94 0 0 1 1-1Zm4 0a.94.94 0 0 1 1 1 1 1 0 0 1-2 0 .94.94 0 0 1 1-1Zm4 0a.94.94 0 0 1 1 1 1 1 0 0 1-2 0 .94.94 0 0 1 1-1Zm4 0a.94.94 0 0 1 1 1 1 1 0 0 1-2 0 .94.94 0 0 1 1-1Zm2 2a1 1 0 1 1-1 1 .94.94 0 0 1 1-1Zm-4 0a1 1 0 1 1-1 1 .94.94 0 0 1 1-1Zm-4 0a1 1 0 1 1-1 1 .94.94 0 0 1 1-1Zm-4 0a1 1 0 1 1-1 1 .94.94 0 0 1 1-1Zm-4 0a1 1 0 1 1-1 1 .94.94 0 0 1 1-1Zm-4 0a1 1 0 1 1-1 1 .94.94 0 0 1 1-1Zm-4 0a1 1 0 0 1 0 2 1 1 0 0 1 0-2Zm-2 2a1 1 0 0 1 0 2 1 1 0 0 1 0-2Zm12 0a1 1 0 1 1-1 1 .94.94 0 0 1 1-1Zm4 0a1 1 0 1 1-1 1 .94.94 0 0 1 1-1Zm4 0a1 1 0 1 1-1 1 .94.94 0 0 1 1-1Zm4 0a1 1 0 1 1-1 1 .94.94 0 0 1 1-1Zm2 2a1 1 0 1 1-1 1 .94.94 0 0 1 1-1Zm-4 0a1 1 0 1 1-1 1 .94.94 0 0 1 1-1Zm-4 0a1 1 0 1 1-1 1 .94.94 0 0 1 1-1Zm-4 0a1 1 0 1 1-1 1 .94.94 0 0 1 1-1Zm2 2a1 1 0 1 1-1 1 .94.94 0 0 1 1-1Zm4 0a1 1 0 1 1-1 1 .94.94 0 0 1 1-1Zm4 0a1 1 0 1 1-1 1 .94.94 0 0 1 1-1Zm4 0a1 1 0 1 1-1 1 .94.94 0 0 1 1-1Zm4 0a1 1 0 1 1-1 1 .94.94 0 0 1 1-1Zm2 2a1 1 0 1 1-1 1 .94.94 0 0 1 1-1Zm4 4a1 1 0 1 1-1 1 .94.94 0 0 1 1-1Zm-2-2a1 1 0 1 1-1 1 .94.94 0 0 1 1-1Zm2-2a1 1 0 1 1-1 1 .94.94 0 0 1 1-1Zm-2-2a1 1 0 1 1-1 1 .94.94 0 0 1 1-1Zm-10 2a1 1 0 1 1-1 1 .94.94 0 0 1 1-1Zm-4 0a1 1 0 1 1-1 1 .94.94 0 0 1 1-1Zm-4 0a1 1 0 1 1-1 1 .94.94 0 0 1 1-1Zm-4 0a1 1 0 1 1-1 1 .94.94 0 0 1 1-1ZM6 23a1 1 0 0 0 .9-.6 4.05 4.05 0 0 0 .5.9.84.84 0 0 0-.4.7.94.94 0 0 0 1 1 1.23 1.23 0 0 0 .8-.4c.3.2.5.3.8.5a.87.87 0 0 0-.6.9.94.94 0 0 0 1 1 .94.94 0 0 0 1-1c0-.2-.1-.3-.1-.5a4.1 4.1 0 0 0 1.1.1 3.75 3.75 0 0 0 1.1-.1c0 .2-.1.3-.1.5a1 1 0 0 0 2 0 .87.87 0 0 0-.6-.9 2.18 2.18 0 0 0 .8-.5 1.23 1.23 0 0 0 .8.4.94.94 0 0 0 1-1 1.23 1.23 0 0 0-.4-.8c.2-.3.3-.6.5-.9a.87.87 0 0 0 .9.6 1 1 0 0 0 0-2 .76.76 0 0 0-.5.2 4.1 4.1 0 0 0 .1-1.1 5.85 5.85 0 0 0-.2-1.3 1.42 1.42 0 0 0 .6.2 1 1 0 0 0 0-2 .88.88 0 0 0-.9.7 4.05 4.05 0 0 0-.5-.9 1 1 0 0 0 .5-.8.94.94 0 0 0-1-1 .79.79 0 0 0-.8.5 3.13 3.13 0 0 0-1-.5 1.08 1.08 0 0 0 .8-1 1 1 0 0 0-2 0 .71.71 0 0 0 .3.6 5.28 5.28 0 0 0-1.3-.1c-.5 0-.8.1-1.3.1a.86.86 0 0 0 .3-.6.94.94 0 0 0-1-1 .94.94 0 0 0-1 1 1 1 0 0 0 .8 1 4.67 4.67 0 0 0-1 .5A1.27 1.27 0 0 0 8 15a.94.94 0 0 0-1 1 .79.79 0 0 0 .5.8 4.05 4.05 0 0 0-.5.9 1.09 1.09 0 0 0-1-.7 1 1 0 0 0 0 2 1.42 1.42 0 0 0 .6-.2 5.07 5.07 0 0 0-.2 1.3 3.75 3.75 0 0 0 .1 1.1.76.76 0 0 0-.5-.2 1 1 0 0 0 0 2Zm6-6.5a3.59 3.59 0 0 1 3.6 3.6 3.5 3.5 0 0 1-3.6 3.5 3.56 3.56 0 0 1-3.6-3.5 3.65 3.65 0 0 1 3.6-3.6ZM22 21a1 1 0 1 1-1 1 .94.94 0 0 1 1-1Zm4 0a1 1 0 1 1-1 1 .94.94 0 0 1 1-1Zm4 0a1 1 0 1 1-1 1 .94.94 0 0 1 1-1Zm-2 2a1 1 0 1 1-1 1 .94.94 0 0 1 1-1Zm-4 0a1 1 0 1 1-1 1 .94.94 0 0 1 1-1Zm-4 0a1 1 0 1 1-1 1 .94.94 0 0 1 1-1ZM6 25a1 1 0 0 1 0 2 1 1 0 0 1 0-2Zm12 0a1 1 0 1 1-1 1 .94.94 0 0 1 1-1Zm4 0a1 1 0 1 1-1 1 .94.94 0 0 1 1-1Zm4 0a1 1 0 1 1-1 1 .94.94 0 0 1 1-1Zm-2 2a1 1 0 1 1-1 1 .94.94 0 0 1 1-1Zm-8 0a1 1 0 1 1-1 1 .94.94 0 0 1 1-1Zm-4 0a1 1 0 1 1-1 1 .94.94 0 0 1 1-1Zm-4 0a1 1 0 0 1 0 2 1 1 0 0 1 0-2Zm-2 2a1 1 0 0 1 0 2 1 1 0 0 1 0-2Zm4 0a1 1 0 0 1 0 2 1 1 0 0 1 0-2Zm4 0a1 1 0 1 1-1 1 .94.94 0 0 1 1-1Zm-6 2a1 1 0 0 1 0 2 1 1 0 0 1 0-2Zm-2 2a1 1 0 0 1 0 2 1 1 0 0 1 0-2Z"/><path id="Border" fill="ACCENT1" d="m46.5 14.2-.8-.8L35.6 3.3l-.8-.8a1.9 1.9 0 0 0-1.3-.5h-29A2.59 2.59 0 0 0 2 4.9V58a2.21 2.21 0 0 0 1.8 1.9h41.4A2.32 2.32 0 0 0 47 58V16a2.43 2.43 0 0 0-.5-1.8Zm-4.22-.2h-6.81a.47.47 0 0 1-.47-.47V6.72a.46.46 0 0 1 .79-.33l6.82 6.82a.46.46 0 0 1-.33.79ZM4.5 57.9h-.2a.4.4 0 0 1-.3-.4v-14a.47.47 0 0 1 .47-.5h40.06a.47.47 0 0 1 .47.47v14c0 .2-.1.3-.3.4H4.5ZM20 29l25 11.53m-.54.47L4.4 40.89a.42.42 0 0 1-.4-.44v-36A.47.47 0 0 1 4.47 4h28.06a.47.47 0 0 1 .47.47v11.07a.47.47 0 0 0 .46.46l11.08.05a.47.47 0 0 1 .46.47v23.74c0 .39-.16.74-.54.74M20.9 27"/></svg>