<svg xmlns="http://www.w3.org/2000/svg" viewBox="0 0 49 62"><path fill="BODY" stroke="BODY" stroke-miterlimit="10" stroke-width="4" d="m46.45 14.19-.77-.77-10.1-10.1-.77-.77A1.88 1.88 0 0 0 33.49 2h-29C3.28 2 2 2.92 2 4.93V58a2.29 2.29 0 0 0 1.84 1.91L4 60a2.42 2.42 0 0 0 .47 0h40.07a2.42 2.42 0 0 0 .46 0h.15A2.29 2.29 0 0 0 47 58V16a2.29 2.29 0 0 0-.55-1.81Z" /><path id="border" fill="ACCENT1" d="m46.45 14.19-.77-.77-10.1-10.1-.77-.77A1.88 1.88 0 0 0 33.49 2h-29C3.28 2 2 2.92 2 4.93V58a2.29 2.29 0 0 0 1.84 1.91L4 60a2.42 2.42 0 0 0 .47 0h40.07a2.42 2.42 0 0 0 .46 0h.15A2.29 2.29 0 0 0 47 58V16a2.29 2.29 0 0 0-.55-1.81Zm-3-.19H35V5.57ZM7 4a1 1 0 0 0 2 0h2a1 1 0 0 0 2 0h2a1 1 0 0 0 2 0h2a1 1 0 0 0 2 0h2a1 1 0 0 0 2 0h2a1 1 0 0 0 2 0h2a1 1 0 0 0 2 0h.06a1.76 1.76 0 0 0-.06.39V16h2a1 1 0 0 0 2 0h2a1 1 0 0 0 2 0h2a1 1 0 0 0 2 0s0 0 0-.06v12.73l-.16-.16A1 1 0 0 0 45 28a1 1 0 0 0-1-1 1 1 0 0 0-.56.19l-.64-.61A1 1 0 0 0 43 26a1 1 0 0 0-1-1 1 1 0 0 0-.62.23l-.62-.59A1 1 0 0 0 41 24a1 1 0 0 0-1-1 1 1 0 0 0-.68.27l-.61-.57A1 1 0 0 0 39 22a1 1 0 0 0-1-1 1 1 0 0 0-.73.33l-.58-.56A1 1 0 0 0 37 20a1 1 0 0 0-2 0 1 1 0 0 0 .36.75l-.1.08-.5.54A1 1 0 0 0 34 21a1 1 0 0 0-1 1 1 1 0 0 0 .45.81l-.61.67A1 1 0 0 0 31 24a1 1 0 0 0 .56.88l-.65.71a1 1 0 1 0-1.23 1.35l-.73.8A1 1 0 1 0 27.83 29l-.83.9a1 1 0 0 0-2 .1 1 1 0 0 0 1 1l-.51.55-4.75-4.74a1 1 0 0 0-1.35 0L13 32.21a1.3 1.3 0 0 0 0-.21 1 1 0 1 0-1 1l-1 .9a1 1 0 0 0-1-.9 1 1 0 0 0-.26 2l-.81.69A1 1 0 0 0 7 36a1 1 0 0 0 .51.85l-.7.59A1 1 0 0 0 6 37a1 1 0 0 0-.69 1.72L4 39.84V37a1 1 0 0 0 0-2v-2a1 1 0 0 0 0-2v-2a1 1 0 0 0 0-2v-2a1 1 0 0 0 0-2v-2a1 1 0 0 0 0-2v-2a1 1 0 0 0 0-2v-2a1 1 0 0 0 0-2V9a1 1 0 0 0 0-2V5a1 1 0 0 0 1-1ZM4.46 58a.59.59 0 0 1-.19 0 .45.45 0 0 1-.27-.46V43h41v14.54a.46.46 0 0 1-.26.41.73.73 0 0 1-.2 0Zm1.26-17 14.13-12a.8.8 0 0 0 .15 0h.07l10.21 10.2a1 1 0 0 0 1.41-1.41L26.88 33l9.17-10 9 8.5V41Z" /><path fill="ACCENT3" d="M17.54 46.74a3.34 3.34 0 0 0-1.13-.61 4 4 0 0 0-1.27-.21h-2.9V56h1.65v-3.64h1.21a4.2 4.2 0 0 0 1.45-.23 3.18 3.18 0 0 0 1.12-.65 3.14 3.14 0 0 0 .73-1 3.66 3.66 0 0 0 .26-1.48 2.66 2.66 0 0 0-.31-1.3 3.13 3.13 0 0 0-.81-.96Zm-.62 3.33a1.54 1.54 0 0 1-.4.65 1.41 1.41 0 0 1-.54.34 2 2 0 0 1-.59.1h-1.5v-4h1.22a2.15 2.15 0 0 1 1 .2 1.6 1.6 0 0 1 .59.49 1.53 1.53 0 0 1 .28.61 2.59 2.59 0 0 1 .07.57 3.07 3.07 0 0 1-.13 1.04Zm9.23 2.8-3.95-6.95h-1.67V56h1.67v-6.94L26.15 56h1.67V45.92h-1.67Zm8.17-.94H36v2.48a.69.69 0 0 1-.34.24l-.48.13-.51.06a3.19 3.19 0 0 1-.4 0 2 2 0 0 1-.94-.23 2.2 2.2 0 0 1-.79-.71 3.69 3.69 0 0 1-.54-1.21 7.53 7.53 0 0 1-.21-1.77 6.8 6.8 0 0 1 .21-1.78 3.16 3.16 0 0 1 .59-1.14 2.06 2.06 0 0 1 .82-.65 2.47 2.47 0 0 1 1-.19 2.36 2.36 0 0 1 .87.17 1.91 1.91 0 0 1 .76.58l1.13-1a3.6 3.6 0 0 0-1.3-.91 4.08 4.08 0 0 0-1.53-.28 4 4 0 0 0-1.66.34 3.74 3.74 0 0 0-1.33 1 4.56 4.56 0 0 0-.89 1.6 7.2 7.2 0 0 0-.32 2.24 7.29 7.29 0 0 0 .32 2.24 4.61 4.61 0 0 0 .89 1.61 3.71 3.71 0 0 0 1.33 1 4.1 4.1 0 0 0 1.66.33 5.67 5.67 0 0 0 .91-.07 4 4 0 0 0 .89-.23 4.54 4.54 0 0 0 .82-.42 2.85 2.85 0 0 0 .7-.65v-3.9h-3.34ZM6 5a1 1 0 1 1-1 1 1 1 0 0 1 1-1Zm4 0a1 1 0 1 1-1 1 1 1 0 0 1 1-1Zm4 0a1 1 0 1 1-1 1 1 1 0 0 1 1-1Zm4 0a1 1 0 1 1-1 1 1 1 0 0 1 1-1Zm4 0a1 1 0 1 1-1 1 1 1 0 0 1 1-1Zm4 0a1 1 0 1 1-1 1 1 1 0 0 1 1-1Zm4 0a1 1 0 1 1-1 1 1 1 0 0 1 1-1Zm2 2a1 1 0 1 1-1 1 1 1 0 0 1 1-1Zm-4 0a1 1 0 1 1-1 1 1 1 0 0 1 1-1Zm-4 0a1 1 0 1 1-1 1 1 1 0 0 1 1-1Zm-4 0a1 1 0 1 1-1 1 1 1 0 0 1 1-1Zm-4 0a1 1 0 1 1-1 1 1 1 0 0 1 1-1Zm-4 0a1 1 0 1 1-1 1 1 1 0 0 1 1-1ZM8 7a1 1 0 1 1-1 1 1 1 0 0 1 1-1ZM6 9a1 1 0 1 1-1 1 1 1 0 0 1 1-1Zm4 0a1 1 0 1 1-1 1 1 1 0 0 1 1-1Zm4 0a1 1 0 1 1-1 1 1 1 0 0 1 1-1Zm4 0a1 1 0 1 1-1 1 1 1 0 0 1 1-1Zm4 0a1 1 0 1 1-1 1 1 1 0 0 1 1-1Zm4 0a1 1 0 1 1-1 1 1 1 0 0 1 1-1Zm4 0a1 1 0 1 1-1 1 1 1 0 0 1 1-1Zm2 2a1 1 0 1 1-1 1 1 1 0 0 1 1-1Zm-4 0a1 1 0 1 1-1 1 1 1 0 0 1 1-1Zm-4 0a1 1 0 1 1-1 1 1 1 0 0 1 1-1Zm-4 0a1 1 0 1 1-1 1 1 1 0 0 1 1-1Zm-4 0a1 1 0 1 1-1 1 1 1 0 0 1 1-1Zm-4 0a1 1 0 1 1-1 1 1 1 0 0 1 1-1Zm-4 0a1 1 0 1 1-1 1 1 1 0 0 1 1-1Zm-2 2a1 1 0 1 1-1 1 1 1 0 0 1 1-1Zm12 0a1 1 0 1 1-1 1 1 1 0 0 1 1-1Zm4 0a1 1 0 1 1-1 1 1 1 0 0 1 1-1Zm4 0a1 1 0 1 1-1 1 1 1 0 0 1 1-1Zm4 0a1 1 0 1 1-1 1 1 1 0 0 1 1-1Zm2 2a1 1 0 1 1-1 1 1 1 0 0 1 1-1Zm-4 0a1 1 0 1 1-1 1 1 1 0 0 1 1-1Zm-4 0a1 1 0 1 1-1 1 1 1 0 0 1 1-1Zm-4 0a1 1 0 1 1-1 1 1 1 0 0 1 1-1Zm2 2a1 1 0 1 1-1 1 1 1 0 0 1 1-1Zm4 0a1 1 0 1 1-1 1 1 1 0 0 1 1-1Zm4 0a1 1 0 1 1-1 1 1 1 0 0 1 1-1Zm4 0a1 1 0 1 1-1 1 1 1 0 0 1 1-1Zm4 0a1 1 0 1 1-1 1 1 1 0 0 1 1-1Zm2 2a1 1 0 1 1-1 1 1 1 0 0 1 1-1Zm4 4a1 1 0 1 1-1 1 1 1 0 0 1 1-1Zm-2-2a1 1 0 1 1-1 1 1 1 0 0 1 1-1Zm2-2a1 1 0 1 1-1 1 1 1 0 0 1 1-1Zm-2-2a1 1 0 1 1-1 1 1 1 0 0 1 1-1Zm-10 2a1 1 0 1 1-1 1 1 1 0 0 1 1-1Zm-4 0a1 1 0 1 1-1 1 1 1 0 0 1 1-1Zm-4 0a1 1 0 1 1-1 1 1 1 0 0 1 1-1Zm-4 0a1 1 0 1 1-1 1 1 1 0 0 1 1-1ZM6 23a1 1 0 0 0 .93-.64 4.43 4.43 0 0 0 .48.85A1 1 0 0 0 8 25a1 1 0 0 0 .78-.4 5.23 5.23 0 0 0 .82.49A1 1 0 0 0 9 26a1 1 0 0 0 2 0 1 1 0 0 0-.14-.48 5.47 5.47 0 0 0 2.28 0A1 1 0 0 0 13 26a1 1 0 0 0 2 0 1 1 0 0 0-.6-.91 5.23 5.23 0 0 0 .82-.49 1 1 0 0 0 .78.4 1 1 0 0 0 1-1 1 1 0 0 0-.41-.78 5.21 5.21 0 0 0 .48-.86 1 1 0 1 0 .39-1.18 5.8 5.8 0 0 0 .11-1.11 6 6 0 0 0-.15-1.28A1 1 0 0 0 18 19a1 1 0 1 0-.95-1.26 5.53 5.53 0 0 0-.53-.91A1 1 0 0 0 17 16a1 1 0 0 0-1-1 1 1 0 0 0-.84.49 5.22 5.22 0 0 0-.95-.53A1 1 0 0 0 15 14a1 1 0 1 0-1.75.65 5.28 5.28 0 0 0-2.5 0A1 1 0 1 0 9 14a1 1 0 0 0 .79 1 5.22 5.22 0 0 0-.95.53A1 1 0 0 0 8 15a1 1 0 0 0-1 1 1 1 0 0 0 .48.83 5.53 5.53 0 0 0-.53.91A1 1 0 1 0 6 19a1 1 0 0 0 .59-.21 5.41 5.41 0 0 0-.16 1.28 5.8 5.8 0 0 0 .11 1.11A1 1 0 1 0 6 23Zm6-6.5a3.57 3.57 0 1 1-3.57 3.57A3.57 3.57 0 0 1 12 16.5ZM22 21a1 1 0 1 1-1 1 1 1 0 0 1 1-1Zm4 0a1 1 0 1 1-1 1 1 1 0 0 1 1-1Zm4 0a1 1 0 1 1-1 1 1 1 0 0 1 1-1Zm-2 2a1 1 0 1 1-1 1 1 1 0 0 1 1-1Zm-4 0a1 1 0 1 1-1 1 1 1 0 0 1 1-1Zm-4 0a1 1 0 1 1-1 1 1 1 0 0 1 1-1ZM6 25a1 1 0 1 1-1 1 1 1 0 0 1 1-1Zm12 0a1 1 0 1 1-1 1 1 1 0 0 1 1-1Zm4 0a1 1 0 1 1-1 1 1 1 0 0 1 1-1Zm4 0a1 1 0 1 1-1 1 1 1 0 0 1 1-1Zm-2 2a1 1 0 1 1-1 1 1 1 0 0 1 1-1Zm-8 0a1 1 0 1 1-1 1 1 1 0 0 1 1-1Zm-4 0a1 1 0 1 1-1 1 1 1 0 0 1 1-1Zm-4 0a1 1 0 1 1-1 1 1 1 0 0 1 1-1Zm-2 2a1 1 0 1 1-1 1 1 1 0 0 1 1-1Zm4 0a1 1 0 1 1-1 1 1 1 0 0 1 1-1Zm4 0a1 1 0 1 1-1 1 1 1 0 0 1 1-1Zm-6 2a1 1 0 1 1-1 1 1 1 0 0 1 1-1Zm-2 2a1 1 0 1 1-1 1 1 1 0 0 1 1-1Z" /></svg>